<svg xmlns="http://www.w3.org/2000/svg" width="1629" height="380" viewBox="0 0 1629 380">
  <defs>
    <style>
      .cls-1 {
        fill: #0080ff;
      }

      .cls-1, .cls-2 {
        fill-rule: evenodd;
      }

      .cls-2 {
        fill: #d5d6d8;
      }
    </style>
  </defs>
  <path id="Fantastik" class="cls-1" d="M49.783,83.353H183.716V38.1H-0.258V284.619H49.783V188.953H169.366V143.7H49.783V83.353Zm333.275,17.661H334.489v14.718Q310.2,95.5,273.778,95.495q-36.06,0-63.1,27.78T183.631,193q0,41.944,26.86,69.541t63.287,27.6q36.058,0,60.711-19.869v14.35h48.569v-183.6ZM282.24,247.825q-22.445,0-36.978-14.9T230.728,193q0-25.022,14.534-40.107t36.978-15.085q20.605,0,36.427,15.453T334.489,193q0,24.283-15.822,39.554T282.24,247.825ZM526.1,95.495q-35.691,0-57.768,22.077V101.014H419.762V284.619h48.569V203.3q0-63.286,45.625-63.287,16.926,0,27.044,11.775t10.119,31.275V284.619h48.569V172.763q0-34.218-20.237-55.743T526.1,95.495ZM751.2,236.05q-16.557,8.831-30.539,8.831-26.86,0-26.86-31.643V140.752h59.975V101.014H693.8V45.454H645.227v55.56h-39.37v39.738h39.37v76.165q0,36.795,19.133,55.008t52.984,18.213q22.444,0,47.833-13.614Zm206.36-135.036H908.986v14.718Q884.7,95.5,848.275,95.495q-36.06,0-63.1,27.78T758.128,193q0,41.944,26.86,69.541t63.287,27.6q36.058,0,60.711-19.869v14.35h48.569v-183.6ZM856.737,247.825q-22.444,0-36.978-14.9T805.225,193q0-25.022,14.534-40.107t36.978-15.085q20.606,0,36.427,15.453T908.986,193q0,24.283-15.822,39.554T856.737,247.825ZM978.806,236.05q3.311,27.228,26.494,40.658t55.93,13.43q36.8,0,58.68-15.821t21.9-45.626q0-19.132-12.33-32.931t-35.88-18.949l-43.78-9.567q-16.56-3.679-16.56-15.453a16.563,16.563,0,0,1,5.89-12.695q5.88-5.334,19.13-5.335,14.715,0,24.1,6.991a26.307,26.307,0,0,1,10.86,18.4l46.36-9.2q-4.785-24.285-26.31-39.37t-53.54-15.086q-34.215,0-54.64,16.925t-20.417,43.786q0,19.869,13.43,33.483t38.447,18.765l37.53,7.727q20.235,4.416,20.24,16.558,0,8.094-7.73,13.246t-20.97,5.151q-34.59,0-37.9-25.02Zm305.324,0q-16.56,8.831-30.54,8.831-26.865,0-26.86-31.643V140.752h59.97V101.014h-59.97V45.454h-48.57v55.56h-39.37v39.738h39.37v76.165q0,36.795,19.13,55.008t52.99,18.213q22.44,0,47.83-13.614Zm52.18-218.928a28.163,28.163,0,0,0-20.97,8.647,28.23,28.23,0,0,0-8.46,20.421,27.139,27.139,0,0,0,8.28,20.237q8.28,8.095,21.15,8.095,12.51,0,20.98-8.095a26.85,26.85,0,0,0,8.46-20.237,28.23,28.23,0,0,0-8.46-20.421A28.185,28.185,0,0,0,1336.31,17.122Zm24.29,267.5v-183.6h-48.57V284.619h48.57Zm233.24,0-98.24-95.666,88.67-87.939h-61.08l-65.86,64.023h-8.83V19.7h-48.57V284.619h48.57V212.87h8.46l72.12,71.749h64.76Z"/>
  <path id="_For_fantastic_meetings" data-name=" For fantastic meetings" class="cls-2" d="M883.412,310.78h25.156v-8.5H874.013v46.305h9.4V330.615h22.461v-8.5H883.412V310.78Zm43.938,2.488a18.858,18.858,0,0,0-13.338,5.08,18.271,18.271,0,0,0,0,26.054,18.858,18.858,0,0,0,13.338,5.08,18.56,18.56,0,0,0,13.166-5.08,18.353,18.353,0,0,0,0-26.054A18.56,18.56,0,0,0,927.35,313.268Zm0,28.405a10.3,10.3,0,0,1,0-20.6,9.487,9.487,0,0,1,6.773,2.869,10.771,10.771,0,0,1,0,14.858A9.491,9.491,0,0,1,927.35,341.673Zm44.216-28.06q-7.673,0-12.371,6.773V314.1h-9.123v34.487H959.2V337.457q0-14.79,12.3-14.79h2l0.483-8.777A8.075,8.075,0,0,0,971.566,313.613Zm30.324,0.484v-3.11a4.761,4.761,0,0,1,1.41-3.663,5.241,5.241,0,0,1,3.7-1.313,11.056,11.056,0,0,1,3.46.622l2.07-7.395a14.459,14.459,0,0,0-6.15-1.313,13.8,13.8,0,0,0-9.883,3.525,12.492,12.492,0,0,0-3.732,9.537v3.11h-5.253v7.464h5.253v27.023h9.125V321.561h10.43V314.1h-10.43Zm46.5,0h-9.12v2.765a17.23,17.23,0,0,0-11.41-3.8,16.05,16.05,0,0,0-11.85,5.217,19.42,19.42,0,0,0-.03,26.159,16.033,16.033,0,0,0,11.88,5.183,17.605,17.605,0,0,0,11.41-3.732v2.7h9.12V314.1Zm-18.94,27.576a9.275,9.275,0,0,1-6.94-2.8,10.279,10.279,0,0,1-2.73-7.5,10.4,10.4,0,0,1,2.73-7.533,9.218,9.218,0,0,1,6.94-2.834,9.505,9.505,0,0,1,6.84,2.9,9.951,9.951,0,0,1,2.98,7.464,9.838,9.838,0,0,1-2.98,7.429A9.562,9.562,0,0,1,1029.45,341.673Zm45.81-28.612a14.666,14.666,0,0,0-10.85,4.146V314.1h-9.13v34.487h9.13V333.31q0-11.887,8.57-11.887a6.363,6.363,0,0,1,5.08,2.212,8.735,8.735,0,0,1,1.9,5.874v19.075h9.12v-21.01a14.683,14.683,0,0,0-3.8-10.47A13.127,13.127,0,0,0,1075.26,313.061Zm42.28,26.4a12.366,12.366,0,0,1-5.74,1.659c-3.36,0-5.05-1.982-5.05-5.944V321.561h11.27V314.1h-11.27V303.661h-9.12V314.1h-7.39v7.464h7.39v14.306q0,6.912,3.6,10.332,3.585,3.421,9.95,3.421a19.1,19.1,0,0,0,8.98-2.557ZM1156.3,314.1h-9.13v2.765a17.2,17.2,0,0,0-11.4-3.8,16.034,16.034,0,0,0-11.85,5.217,19.435,19.435,0,0,0-.04,26.159,16.07,16.07,0,0,0,11.89,5.183,17.558,17.558,0,0,0,11.4-3.732v2.7h9.13V314.1Zm-18.94,27.576a9.3,9.3,0,0,1-6.95-2.8,10.279,10.279,0,0,1-2.73-7.5,10.4,10.4,0,0,1,2.73-7.533,9.24,9.24,0,0,1,6.95-2.834,9.505,9.505,0,0,1,6.84,2.9,9.981,9.981,0,0,1,2.97,7.464,9.867,9.867,0,0,1-2.97,7.429A9.562,9.562,0,0,1,1137.36,341.673Zm22.93-2.212a9.7,9.7,0,0,0,4.97,7.637,20.667,20.667,0,0,0,10.51,2.522q6.915,0,11.02-2.971a9.928,9.928,0,0,0,4.11-8.57,8.984,8.984,0,0,0-2.31-6.186,12.231,12.231,0,0,0-6.74-3.559l-8.22-1.8c-2.08-.461-3.11-1.428-3.11-2.9a3.1,3.1,0,0,1,1.1-2.385,5.3,5.3,0,0,1,3.6-1,7.354,7.354,0,0,1,4.52,1.313,4.914,4.914,0,0,1,2.04,3.456l8.71-1.728a11.53,11.53,0,0,0-4.94-7.395,17.114,17.114,0,0,0-10.06-2.833q-6.42,0-10.26,3.179a10.182,10.182,0,0,0-3.84,8.224,8.583,8.583,0,0,0,2.53,6.289,13.763,13.763,0,0,0,7.22,3.525l7.05,1.451q3.8,0.829,3.8,3.11a2.909,2.909,0,0,1-1.45,2.488,7.024,7.024,0,0,1-3.94.968c-4.33,0-6.71-1.567-7.12-4.7Zm57.35,0a12.366,12.366,0,0,1-5.74,1.659q-5.04,0-5.04-5.944V321.561h11.26V314.1h-11.26V303.661h-9.13V314.1h-7.39v7.464h7.39v14.306q0,6.912,3.6,10.332t9.95,3.421a19.1,19.1,0,0,0,8.98-2.557Zm9.8-41.121a5.487,5.487,0,0,0-5.53,5.46,5.12,5.12,0,0,0,1.55,3.8,5.918,5.918,0,0,0,7.92,0,5.043,5.043,0,0,0,1.59-3.8A5.487,5.487,0,0,0,1227.44,298.34Zm4.56,50.244V314.1h-9.12v34.487H1232Zm23.08-7.326a9.264,9.264,0,0,1-6.95-2.73,9.827,9.827,0,0,1-2.66-7.153,9.949,9.949,0,0,1,2.66-7.188,9.2,9.2,0,0,1,6.95-2.764q6.765,0,8.5,6.842l8.77-2.488a17.344,17.344,0,0,0-6.46-9.226,17.733,17.733,0,0,0-10.81-3.49,18.2,18.2,0,0,0-13.1,5.148,18.807,18.807,0,0,0,0,26.3,19.181,19.181,0,0,0,24.12,1.59,16.055,16.055,0,0,0,6.25-9.4l-8.43-2.143Q1261.715,341.258,1255.08,341.258Zm78.76-28.2q-8.01,0-12.58,5.667-3.87-5.667-11.33-5.667-6.435,0-10.3,3.87V314.1h-9.12v34.487h9.12V332q0-5.322,2.07-7.948a6.992,6.992,0,0,1,5.81-2.626,6.407,6.407,0,0,1,4.84,2.039,7.551,7.551,0,0,1,1.93,5.425v19.7h9.13V332q0-5.253,2.14-7.913a7.124,7.124,0,0,1,5.87-2.661,6.392,6.392,0,0,1,4.84,2.039,7.557,7.557,0,0,1,1.94,5.425v19.7h9.05V327.021a13.532,13.532,0,0,0-3.94-10.056A12.971,12.971,0,0,0,1333.84,313.061Zm52.02,17.623A17.877,17.877,0,0,0,1380.5,318a16.8,16.8,0,0,0-12.13-4.941,17.231,17.231,0,0,0-12.68,5.148,19.415,19.415,0,0,0-.04,26.3,17.109,17.109,0,0,0,12.58,5.114,18.9,18.9,0,0,0,10.16-2.695,16.649,16.649,0,0,0,6.57-7.948l-8.16-1.728q-2.685,4.562-8.57,4.562a7.985,7.985,0,0,1-5.56-2.177,10.2,10.2,0,0,1-3.08-5.84h26.27v-3.11Zm-17.49-9.676a8.5,8.5,0,0,1,5.11,1.59,8.167,8.167,0,0,1,3.05,4.769h-16.66a7.742,7.742,0,0,1,3.21-4.7A9.276,9.276,0,0,1,1368.37,321.008Zm54.17,9.676A17.877,17.877,0,0,0,1417.18,318a16.78,16.78,0,0,0-12.13-4.941,17.231,17.231,0,0,0-12.68,5.148,19.4,19.4,0,0,0-.03,26.3,17.093,17.093,0,0,0,12.58,5.114,18.865,18.865,0,0,0,10.15-2.695,16.538,16.538,0,0,0,6.57-7.948l-8.15-1.728q-2.7,4.562-8.57,4.562a8.009,8.009,0,0,1-5.57-2.177,10.192,10.192,0,0,1-3.07-5.84h26.26v-3.11Zm-17.49-9.676a8.553,8.553,0,0,1,5.12,1.59,8.155,8.155,0,0,1,3.04,4.769h-16.66a7.715,7.715,0,0,1,3.22-4.7A9.222,9.222,0,0,1,1405.05,321.008Zm44.08,18.453a12.3,12.3,0,0,1-5.73,1.659q-5.055,0-5.05-5.944V321.561h11.27V314.1h-11.27V303.661h-9.12V314.1h-7.4v7.464h7.4v14.306q0,6.912,3.59,10.332t9.95,3.421a19.133,19.133,0,0,0,8.99-2.557Zm9.8-41.121a5.487,5.487,0,0,0-5.53,5.46,5.091,5.091,0,0,0,1.56,3.8,5.905,5.905,0,0,0,7.91,0,5.043,5.043,0,0,0,1.59-3.8A5.487,5.487,0,0,0,1458.93,298.34Zm4.56,50.244V314.1h-9.12v34.487h9.12Zm27.37-35.523a14.666,14.666,0,0,0-10.85,4.146V314.1h-9.13v34.487h9.13V333.31q0-11.887,8.56-11.887a6.349,6.349,0,0,1,5.08,2.212,8.689,8.689,0,0,1,1.91,5.874v19.075h9.12v-21.01a14.683,14.683,0,0,0-3.8-10.47A13.127,13.127,0,0,0,1490.86,313.061Zm53.4,1.036h-8.77v2.143q-4.08-3.18-10.86-3.179a16.327,16.327,0,0,0-11.68,4.872,15.787,15.787,0,0,0-5.04,11.783,15.975,15.975,0,0,0,5.04,11.887,16.266,16.266,0,0,0,11.68,4.907q6.915,0,10.86-3.179v0.553a8.906,8.906,0,0,1-9.61,9.606,10.534,10.534,0,0,1-5.25-1.14,15.185,15.185,0,0,1-4.15-3.835l-7.4,5.6q4.77,7.6,16.8,7.6,8.5,0,13.48-4.32t4.97-12.129Zm-18.04,24.6a9.7,9.7,0,0,1-6.84-2.488,9.19,9.19,0,0,1,0-12.993,9.7,9.7,0,0,1,6.84-2.488,9.328,9.328,0,0,1,6.5,2.522,8.922,8.922,0,0,1,0,12.924A9.325,9.325,0,0,1,1526.22,338.7Zm22.1,0.76a9.739,9.739,0,0,0,4.98,7.637,20.6,20.6,0,0,0,10.5,2.522q6.915,0,11.03-2.971a9.928,9.928,0,0,0,4.11-8.57,8.946,8.946,0,0,0-2.32-6.186,12.235,12.235,0,0,0-6.73-3.559l-8.23-1.8q-3.105-.691-3.11-2.9a3.109,3.109,0,0,1,1.11-2.385,5.25,5.25,0,0,1,3.59-1,7.406,7.406,0,0,1,4.53,1.313,4.983,4.983,0,0,1,2.04,3.456l8.7-1.728a11.456,11.456,0,0,0-4.94-7.395,17.06,17.06,0,0,0-10.05-2.833q-6.435,0-10.27,3.179a10.2,10.2,0,0,0-3.83,8.224,8.614,8.614,0,0,0,2.52,6.289,13.763,13.763,0,0,0,7.22,3.525l7.05,1.451c2.54,0.553,3.8,1.59,3.8,3.11a2.887,2.887,0,0,1-1.45,2.488,7,7,0,0,1-3.94.968q-6.5,0-7.11-4.7Z"/>
</svg>
